<svg xmlns="http://www.w3.org/2000/svg" width="1280" height="720" viewBox="0 0 1280 720">
  <rect width="1280" height="720" fill="#0f172a"/>
  <text x="640" y="85" text-anchor="middle" fill="#dbeafe" font-family="Segoe UI, Arial" font-size="42" font-weight="700">Shell Compare</text>
  <rect x="90" y="130" width="340" height="500" rx="20" fill="#111827" stroke="#60a5fa" stroke-width="3"/>
  <rect x="470" y="130" width="340" height="500" rx="20" fill="#111827" stroke="#34d399" stroke-width="3"/>
  <rect x="850" y="130" width="340" height="500" rx="20" fill="#111827" stroke="#f59e0b" stroke-width="3"/>
  <text x="260" y="185" text-anchor="middle" fill="#93c5fd" font-family="Segoe UI, Arial" font-size="28" font-weight="700">PowerShell</text>
  <text x="640" y="185" text-anchor="middle" fill="#6ee7b7" font-family="Segoe UI, Arial" font-size="28" font-weight="700">Git Bash</text>
  <text x="1020" y="185" text-anchor="middle" fill="#fcd34d" font-family="Segoe UI, Arial" font-size="28" font-weight="700">WSL</text>
  <rect x="130" y="230" width="260" height="22" rx="6" fill="#334155"/>
  <rect x="130" y="270" width="210" height="22" rx="6" fill="#334155"/>
  <rect x="130" y="310" width="250" height="22" rx="6" fill="#334155"/>
  <rect x="510" y="230" width="260" height="22" rx="6" fill="#334155"/>
  <rect x="510" y="270" width="210" height="22" rx="6" fill="#334155"/>
  <rect x="510" y="310" width="250" height="22" rx="6" fill="#334155"/>
  <rect x="890" y="230" width="260" height="22" rx="6" fill="#334155"/>
  <rect x="890" y="270" width="210" height="22" rx="6" fill="#334155"/>
  <rect x="890" y="310" width="250" height="22" rx="6" fill="#334155"/>
</svg>
